<svg xmlns="http://www.w3.org/2000/svg" xmlns:xlink="http://www.w3.org/1999/xlink" width="180" height="100" viewBox="0 0 180 100"><defs><clipPath id="b"><rect width="180" height="100"/></clipPath></defs><g id="a" clip-path="url(#b)"><path d="M87.747,6.927c-5.241,0-15.419,7.4-24.058,7.4s-19.431-7.4-24.058-7.4c-31.767,0-49.966,85.43-26.215,85.43,20.049,0,22.747-24.983,50.2-24.983,22.207,0,35.239,24.679,50.043,24.679,23.747,0,5.863-85.127-25.908-85.127ZM37.777,55.043A16.655,16.655,0,1,1,54.432,38.387,16.659,16.659,0,0,1,37.777,55.043ZM81.962,45.79a3.7,3.7,0,1,1,3.7-3.7A3.7,3.7,0,0,1,81.962,45.79ZM93.3,56.893a3.7,3.7,0,1,1,3.7-3.7A3.7,3.7,0,0,1,93.3,56.893Zm0-22.207a3.7,3.7,0,1,1,3.7-3.7A3.7,3.7,0,0,1,93.3,34.686Zm11.1,11.1a3.7,3.7,0,1,1,3.7-3.7A3.7,3.7,0,0,1,104.4,45.79ZM37.777,29.134a9.253,9.253,0,1,0,9.253,9.253A9.254,9.254,0,0,0,37.777,29.134Z" transform="translate(26.428 0.073)" fill="#180559"/></g></svg>