<svg xmlns="http://www.w3.org/2000/svg" xmlns:xlink="http://www.w3.org/1999/xlink" width="180" height="100" viewBox="0 0 180 100"><defs><clipPath id="b"><rect width="180" height="100"/></clipPath></defs><g id="a" clip-path="url(#b)"><path d="M95.446,5.968A5.962,5.962,0,0,0,87.691.281L28.038,17.9a5.964,5.964,0,0,0-4.176,5.686V72.318a25.789,25.789,0,0,0-5.966-.731C8.012,71.587,0,76.928,0,83.518S8.012,95.449,17.9,95.449s17.9-5.341,17.9-11.931V39.953L83.517,25.968V60.387a25.788,25.788,0,0,0-5.966-.731c-9.884,0-17.9,5.341-17.9,11.931s8.012,11.931,17.9,11.931,17.9-5.341,17.9-11.931l0-65.619Z" transform="translate(42.552 2.551)" fill="#180559"/></g></svg>