<svg xmlns="http://www.w3.org/2000/svg" xmlns:xlink="http://www.w3.org/1999/xlink" width="951.5" height="709.355" viewBox="0 0 951.5 709.355">
  <defs>
    <linearGradient id="linear-gradient" x1="0.5" x2="0.5" y2="1" gradientUnits="objectBoundingBox">
      <stop offset="0" stop-color="#0a13bf"/>
      <stop offset="1" stop-color="#0ff2db"/>
    </linearGradient>
  </defs>
  <path id="Sustracción_1" data-name="Sustracción 1" d="M890.191,733.355h0a118.782,118.782,0,0,1-17.109-1.333c-5.733-.83-12.038-2.068-19.276-3.783-13.789-3.268-29.278-7.843-48.889-13.635l-.009,0c-18.092-5.343-38.6-11.4-63.259-18.04-28.646-7.713-57.025-14.621-86.76-21.12-11.386-2.489-22.1-4.81-32.455-7.056l-.279-.06c-45.75-9.918-81.887-17.752-109.553-25.6a325.088,325.088,0,0,1-36.148-12.232,147.386,147.386,0,0,1-27.166-14.449,107.88,107.88,0,0,1-20.762-18.612,147.594,147.594,0,0,1-16.936-24.723,337.689,337.689,0,0,1-15.687-32.78c-5.648-13.289-11.516-28.416-17.016-42.785a148.743,148.743,0,0,0-14.842-28.73,179.134,179.134,0,0,0-20.484-25.382A237.35,237.35,0,0,0,318.434,420.6a330.647,330.647,0,0,0-28.769-19.885c-18.039-11.174-39.127-22.2-64.469-33.722-22.357-10.161-45.067-19.39-67.028-28.316l-.017-.007c-29.518-12-57.4-23.327-80.366-35.3a219.678,219.678,0,0,1-30.358-18.6,111.947,111.947,0,0,1-11.65-9.965,72.171,72.171,0,0,1-8.889-10.572,125,125,0,0,1-14.767-31.075A221.937,221.937,0,0,1,3.7,196.208C.337,173.285-.74,146.64.5,117.014c.486-11.64,1.335-23.772,2.522-36.06.95-9.831,2.118-19.784,3.472-29.582C8.759,34.955,10.8,24.442,10.887,24l938.149,0c0,.006.011.07.03.189.39,2.551,1.226,8.063,2.434,16.313V710.925c-11.921,8.162-21.989,13.62-31.685,17.179a83.81,83.81,0,0,1-29.624,5.252Z" transform="translate(0 -24)" fill="url(#linear-gradient)"/>
</svg>
